<?xml version="1.0" standalone="no"?>
<!DOCTYPE svg PUBLIC "-//W3C//DTD SVG 1.1//EN" "http://www.w3.org/Graphics/SVG/1.1/DTD/svg11.dtd" >
<svg xmlns="http://www.w3.org/2000/svg">
<metadata>Generated by IcoMoon</metadata>
<defs>
<font id="icomoon" horiz-adv-x="1024">
<font-face units-per-em="1024" ascent="960" descent="-64" />
<missing-glyph horiz-adv-x="1024" />
<glyph unicode="&#x20;" horiz-adv-x="512" d="" />
<glyph unicode="&#xe110;" glyph-name="keyboard_arrow_left" d="M658 252.667l-60-60-256 256 256 256 60-60-196-196z" />
<glyph unicode="&#xe113;" glyph-name="keyboard_backspace" d="M896 468.667v-84h-604l152-154-60-60-256 256 256 256 60-60-152-154h604z" />
<glyph unicode="&#xe206;" glyph-name="check" d="M384 248.667l452 452 60-60-512-512-238 238 60 60z" />
<glyph unicode="&#xe25a;" glyph-name="share" d="M768 252.667q52 0 88-37t36-87q0-52-37-89t-87-37-87 37-37 89q0 20 2 28l-302 176q-38-34-88-34-52 0-90 38t-38 90 38 90 90 38q50 0 88-34l300 174q-4 20-4 30 0 52 38 90t90 38 90-38 38-90-38-90-90-38q-48 0-88 36l-300-176q4-20 4-30t-4-30l304-176q36 32 84 32z" />
<glyph unicode="&#xe291;" glyph-name="favorite" d="M512 28.667l-62 56q-106 96-154 142t-107 114-81 123-22 113q0 98 67 166t167 68q116 0 192-90 76 90 192 90 100 0 167-68t67-166q0-78-52-162t-113-146-199-186z" />
<glyph unicode="&#xe292;" glyph-name="favorite_outline" d="M516 146.667q96 86 142 130t100 104 75 106 21 90q0 64-43 106t-107 42q-50 0-93-28t-59-72h-80q-16 44-59 72t-93 28q-64 0-107-42t-43-106q0-44 21-90t75-106 100-104 142-130l4-4zM704 810.667q100 0 167-68t67-166q0-58-22-113t-81-123-107-114-154-142l-62-56-62 54q-138 124-199 186t-113 146-52 162q0 98 67 166t167 68q116 0 192-90 76 90 192 90z" />
<glyph unicode="&#xe311;" glyph-name="zoom_in" d="M512 512.667h-86v-86h-42v86h-86v42h86v86h42v-86h86v-42zM406 340.667q80 0 136 56t56 136-56 136-136 56-136-56-56-136 56-136 136-56zM662 340.667l212-212-64-64-212 212v34l-12 12q-76-66-180-66-116 0-197 80t-81 196 81 197 197 81 196-81 80-197q0-104-66-180l12-12h34z" />
<glyph unicode="&#xe312;" glyph-name="zoom_out" d="M298 554.667h214v-42h-214v42zM406 340.667q80 0 136 56t56 136-56 136-136 56-136-56-56-136 56-136 136-56zM662 340.667l212-212-64-64-212 212v34l-12 12q-76-66-180-66-116 0-197 80t-81 196 81 197 197 81 196-81 80-197q0-104-66-180l12-12h34z" />
<glyph unicode="&#xe600;" glyph-name="camera" d="M533.291 554.667c-106.027 0-191.957-85.973-191.957-192s85.931-192 191.957-192c105.984 0 191.957 85.973 191.957 192s-85.973 192-191.957 192zM458.965 491.392c21.931 12.757 47.147 20.608 74.368 20.608 76.416 0 138.923-57.941 147.584-132.139-73.813 56.832-161.067 91.904-221.952 111.531zM960 725.334h-206.251l-28.416 85.333h-426.667l-28.416-85.333h-163.584c-47.104 0-106.667-38.229-106.667-85.333v-512c0-47.104 59.563-85.333 106.667-85.333h853.333c47.104 0 64 38.229 64 85.333v512c0 47.104-16.896 85.333-64 85.333zM533.333 85.334c-153.173 0-277.333 124.16-277.333 277.333s124.16 277.333 277.333 277.333 277.333-124.16 277.333-277.333-124.16-277.333-277.333-277.333zM938.667 554.667h-85.333v85.333h85.333v-85.333z" />
<glyph unicode="&#xe601;" glyph-name="soundcloud" d="M34.406 304.384l16.794 71.731-16.794 74.086c-0.461 2.202-4.71 3.891-9.779 3.891-5.222 0-9.421-1.69-9.779-3.891l-14.848-74.086 14.797-71.68c0.41-2.304 4.608-3.891 9.779-3.891 5.12-0.051 9.37 1.536 9.83 3.84zM139.418 264.602l14.182 110.797-14.182 171.418c-0.461 4.301-5.837 7.782-12.237 7.782-6.502 0-11.93-3.482-12.186-7.782l-12.595-171.418 12.595-110.797c0.307-4.403 5.683-7.782 12.186-7.782 6.4 0 11.776 3.379 12.237 7.782zM244.122 266.394l11.878 108.902-11.878 228.198c-0.307 5.427-6.605 9.626-14.438 9.626-7.782 0-14.080-4.198-14.387-9.626l-10.496-228.198 10.496-109.005c0.307-5.274 6.605-9.523 14.387-9.523 7.834 0.051 14.131 4.25 14.438 9.626zM348.672 267.981l9.728 107.315-9.728 229.888c-0.256 6.298-7.475 11.315-16.384 11.315-9.011 0-16.179-5.018-16.435-11.315l-8.653-229.888 8.704-107.315c0.205-6.298 7.424-11.315 16.384-11.315 8.909 0.051 16.128 4.915 16.384 11.315zM453.12 269.414l7.68 105.779-7.68 263.629c-0.205 7.27-8.397 13.056-18.33 13.056s-18.125-5.888-18.278-13.107l-6.912-263.475 6.912-105.882c0.154-7.219 8.346-13.107 18.278-13.107s18.125 5.786 18.33 13.107zM526.182 256.205c0.41 0 363.52-0.205 365.824-0.205 72.909 0 131.994 57.19 131.994 127.693s-59.085 127.59-131.994 127.59c-18.074 0-35.277-3.584-50.995-9.882-10.496 114.995-110.234 205.21-231.885 205.21-29.747 0-58.778-5.683-84.378-15.206-10.035-3.789-12.646-7.578-12.749-15.104v-404.992c0.102-7.834 6.349-14.285 14.182-15.104z" />
<glyph unicode="&#xe602;" glyph-name="arrow_back" d="M854.005 489.995v-84h-520l238.005-240-60-60-342.005 342.005 342.005 342.005 60-60-238.005-240h520z" />
<glyph unicode="&#xe603;" glyph-name="chevron-thin-left" d="M711.219 80.998c13.722-13.926 13.722-36.301 0-50.125s-35.891-13.875-49.613 0l-400.896 404.89c-13.722 13.824-13.722 36.198 0 50.125l400.896 404.89c13.722 13.824 35.891 13.824 49.613 0 13.722-13.875 13.722-36.301 0-50.125l-365.619-379.853 365.619-379.802z" />
<glyph unicode="&#xe604;" glyph-name="location-pin" d="M512 869.939c-141.414 0-256-114.125-256-255.488 0-244.429 256-563.2 256-563.2s256 318.822 256 563.2c0 141.312-114.586 255.488-256 255.488zM512 473.088c-76.39 0-138.24 61.901-138.24 138.24s61.85 138.24 138.24 138.24c76.288 0 138.189-61.901 138.189-138.24s-61.901-138.24-138.189-138.24z" />
<glyph unicode="&#xe605;" glyph-name="html5" d="M60.538 960l82.144-921.63 368.756-102.37 369.724 102.524 82.3 921.476h-902.924zM784.63 658.572h-432.54l10.302-115.75h411.968l-31.042-347.010-231.844-64.254-231.572 64.254-15.83 177.512h113.494l8.048-90.232 125.862-33.916 0.278 0.078 125.934 33.992 13.070 146.55h-391.74l-30.494 341.8h566.214l-10.108-113.024z" />
<glyph unicode="&#xe606;" glyph-name="css3" d="M152.388 911.478l-34.36-171.926h699.748l-21.884-111.054h-700.188l-33.892-171.898h699.684l-39.018-196.064-282.012-93.422-244.4 93.422 16.728 85.042h-171.898l-40.896-206.352 404.226-154.704 466.006 154.704 153.768 772.252z" />
<glyph unicode="&#xe607;" glyph-name="behance" d="M413.291 483.787c0 0 96.875 7.531 96.875 125.899 0 118.528-79.253 176.181-179.712 176.181h-330.443v-661.813h330.443c0 0 201.781-6.603 201.781 195.381-0.053 0.053 8.757 164.352-118.933 164.352zM145.611 668.309h184.832c0 0 44.949 0 44.949-68.811 0-68.917-26.421-78.901-56.427-78.901h-173.365v147.712zM321.077 241.717h-175.467v176.896h184.832c0 0 66.965 0.917 66.965-90.88 0-77.419-50.027-85.451-76.341-86.016zM801.227 617.579c-244.277 0-244.075-254.315-244.075-254.315s-16.693-252.981 244.075-252.981c0 0 217.237-13.003 217.237 175.979h-111.723c0 0 3.691-71.221-101.781-71.221 0 0-111.819-7.787-111.819 115.2h328.853c0.053 0.053 36.299 287.339-220.779 287.339zM900.608 418.613h-208.587c0 0 13.621 101.995 111.723 101.995s96.875-101.995 96.875-101.995zM926.571 747.008h-261.995v-81.611h261.995v81.611z" />
<glyph unicode="&#xe608;" glyph-name="codepen" d="M945.75 591.958l-448 298.666c-10.748 7.166-24.752 7.166-35.5 0l-448-298.666c-8.902-5.934-14.25-15.926-14.25-26.624v-298.666c0-10.7 5.348-20.692 14.25-26.624l448-298.666c5.374-3.584 11.562-5.376 17.75-5.376s12.376 1.792 17.75 5.376l448 298.666c8.902 5.934 14.25 15.926 14.25 26.624v298.666c0 10.698-5.348 20.69-14.25 26.624zM480 305.124l-166.312 110.876 166.312 110.874 166.312-110.874-166.312-110.876zM512 582.458v221.75l358.31-238.876-166.31-110.874-192 128zM448 582.458l-192-128-166.312 110.874 358.312 238.876v-221.75zM198.312 416l-134.312-89.542v179.082l134.312-89.54zM256 377.542l192-128v-221.748l-358.312 238.872 166.312 110.876zM512 249.542l192 128 166.312-110.876-358.312-238.874v221.75zM761.688 416l134.312 89.54v-179.084l-134.312 89.544z" />
<glyph unicode="&#xe609;" glyph-name="clear" d="M810.005 685.995l-238.005-238.005 238.005-238.005-60-60-238.005 238.005-238.005-238.005-60 60 238.005 238.005-238.005 238.005 60 60 238.005-238.005 238.005 238.005z" />
<glyph unicode="&#xe60a;" glyph-name="vsco" horiz-adv-x="2048" d="M380.303 189.467l-199.229 517.079h124.805l143.418-396.926 143.421 396.926h124.815l-199.229-517.082-138.001 0.003zM786.93 263.103l60.471 86.064c36.42-37.984 93.020-70.557 164.338-70.557 61.242 0 89.935 27.139 89.935 57.375 0 89.921-297.687 27.139-297.687 221.72 0 86.047 74.428 157.361 196.134 157.361 82.173 0 150.395-24.801 201.568-72.093l-61.245-82.173c-41.865 38.755-97.676 56.596-150.402 56.596-46.517 0-72.868-20.166-72.868-51.176 0-81.401 296.909-26.361 296.909-219.395 0-94.57-68.215-165.898-206.988-165.898-100.007 0.007-171.325 33.335-220.163 82.176zM1655.46 468.535c-32.43 0-54.934-25.634-54.934-57.030v-0.512c0-31.406 23.040-57.573 55.467-57.576 32.43 0 54.965 25.638 54.965 57.050v0.526c0.003 31.392-23.043 57.542-55.497 57.542zM1592.030 722.9c-151.808 0-274.896-123.075-274.896-274.896 0-151.811 123.088-274.903 274.896-274.903 151.835 0 274.896 123.092 274.896 274.903 0 151.818-123.061 274.896-274.896 274.896zM1753.054 410.996c0-52.081-41.056-94.734-97.594-94.734-50.951 0-88.846 34.324-95.809 79.254-9.94-3.348-21.282-5.199-34.717-5.199-53.907 0-93.938 41.619-93.938 94.177v0.522c0 52.084 39.257 94.723 95.488 94.723 34.56 0 55.224-11.51 72.223-28.245l-25.627-29.594c-14.121 12.848-28.529 20.692-46.851 20.692-30.863 0-53.118-25.638-53.118-57.027v-0.553c0-31.379 21.74-57.535 53.118-57.535 15.186 0 26.092 4.448 36.42 11.834 11.875 38.342 47.531 66.383 93.344 66.383 56.515 0 97.062-42.131 97.062-94.188v-0.512z" />
<glyph unicode="&#xe610;" glyph-name="equalizer" d="M682.005 576h172v-470.005h-172v470.005zM170.005 105.995v342.005h172v-342.005h-172zM426.005 105.995v684h172v-684h-172z" />
<glyph unicode="&#xe614;" glyph-name="flickr2" d="M800 544c-70.581 0-128-57.419-128-128s57.419-128 128-128c70.581 0 128 57.419 128 128s-57.419 128-128 128zM800 640v0c123.712 0 224-100.288 224-224s-100.288-224-224-224-224 100.288-224 224c0 123.712 100.288 224 224 224zM0 416c0 123.712 100.288 224 224 224s224-100.288 224-224c0-123.712-100.288-224-224-224s-224 100.288-224 224z" />
<glyph unicode="&#xe616;" glyph-name="github2" d="M0 403.595c0-46.4 4.341-88.384 13.024-125.931s20.693-70.187 36.053-97.888 34.88-52.075 58.581-73.109c23.701-21.035 49.408-38.229 77.109-51.573s59.339-24.203 94.891-32.544c35.552-8.341 71.851-14.187 108.907-17.525s77.781-5.003 122.176-5.003c44.736 0 85.632 1.664 122.677 5.003s73.44 9.184 109.163 17.525 67.509 19.189 95.392 32.544c27.872 13.355 53.749 30.539 77.611 51.573s43.563 45.408 59.083 73.109 27.627 60.331 36.299 97.888c8.683 37.557 13.024 79.541 13.024 125.931 0 82.784-27.712 154.389-83.115 214.816 3.008 8.011 5.76 17.109 8.267 27.285s4.843 24.704 7.008 43.563c2.165 18.859 1.333 40.64-2.507 65.344s-10.933 49.909-21.28 75.616l-7.509 1.504c-5.344 1.003-14.101 0.747-26.293-0.747s-26.368-4.501-42.56-9.013c-16.192-4.501-37.056-13.184-62.592-26.037s-52.491-28.96-80.875-48.32c-48.736 13.355-115.669 20.032-200.789 20.032-84.789 0-151.552-6.677-200.299-20.032-28.373 19.36-55.499 35.467-81.365 48.32s-46.485 21.536-61.835 26.037c-15.349 4.512-29.707 7.424-43.061 8.768s-21.781 1.749-25.291 1.248-6.261-1.088-8.267-1.749c-10.347-25.707-17.44-50.901-21.28-75.616s-4.672-46.485-2.507-65.344 4.512-33.387 7.008-43.563c2.507-10.187 5.259-19.275 8.267-27.285-55.413-60.427-83.125-132.021-83.125-214.816zM125.685 277.909c0 48.075 21.867 92.139 65.6 132.192 13.013 12.021 28.203 21.109 45.568 27.296s36.971 9.675 58.837 10.517c21.867 0.832 42.816 0.672 62.837-0.501s44.736-2.752 74.112-4.757c29.376-2.005 54.752-3.008 76.117-3.008s46.741 1.003 76.117 3.008c29.376 2.005 54.080 3.584 74.112 4.757s40.971 1.333 62.837 0.501c21.867-0.832 41.472-4.341 58.837-10.517s32.544-15.275 45.568-27.296c43.733-39.392 65.6-83.456 65.6-132.192 0-28.715-3.595-54.165-10.773-76.363s-16.363-40.811-27.541-55.829-26.709-27.787-46.571-38.304c-19.861-10.517-39.221-18.613-58.080-24.288s-43.061-10.101-72.608-13.269c-29.547-3.168-55.915-5.088-79.115-5.76s-52.661-1.003-88.373-1.003-65.173 0.331-88.373 1.003c-23.2 0.661-49.579 2.581-79.115 5.76s-53.749 7.595-72.608 13.269c-18.859 5.675-38.219 13.771-58.080 24.288s-35.381 23.285-46.571 38.304c-11.179 15.019-20.363 33.632-27.541 55.829s-10.763 47.659-10.763 76.363zM640 288c0 53.024 28.651 96 64 96s64-42.976 64-96c0-53.024-28.651-96-64-96s-64 42.976-64 96zM256 288c0 53.024 28.651 96 64 96s64-42.976 64-96c0-53.024-28.651-96-64-96s-64 42.976-64 96z" />
<glyph unicode="&#xe61a;" glyph-name="globe" d="M438.859 886.859q119.424 0 220.288-58.859t159.712-159.712 58.859-220.288-58.859-220.288-159.712-159.712-220.288-58.859-220.288 58.859-159.712 159.712-58.859 220.288 58.859 220.288 159.712 159.712 220.288 58.859zM595.424 589.141q-1.141-0.576-5.429-5.429t-7.712-5.429q1.141 0 2.571 2.859t2.859 6.283 2.005 4q3.424 4 12.576 8.576 8 3.424 29.717 6.859 19.424 4.576 29.141-6.283-1.141 1.141 5.429 7.424t8.288 6.859q1.717 1.141 8.576 2.571t8.576 4.288l1.141 12.576q-6.859-0.576-10.005 4t-3.712 12q0-1.141-3.424-4.576 0 4-2.571 4.576t-6.571-0.576-5.141-0.576q-5.717 1.717-8.576 4.288t-4.576 9.429-2.283 8.576q-1.141 2.859-5.429 6.005t-5.429 6.005q-0.576 1.141-1.429 3.147t-1.717 3.712-2.283 3.147-3.147 1.429-4-2.859-4.288-5.717-2.571-2.859q-1.717 1.141-3.424 0.853t-2.571-0.576-2.571-1.717-2.859-2.005q-1.717-1.141-4.853-1.717t-4.853-1.141q8.576 2.859-0.576 6.283-5.717 2.283-9.141 1.717 5.141 2.283 4.288 6.859t-4.853 8h2.859q-0.576 2.283-4.853 4.853t-10.005 4.853-7.424 3.424q-4.576 2.859-19.424 5.429t-18.859 0.288q-2.859-3.424-2.571-6.005t2.283-8 2.005-7.147q0.576-3.424-3.147-7.424t-3.712-6.859q0-4 8-8.853t5.717-12.288q-1.717-4.576-9.141-9.141t-9.141-6.859q-2.859-4.576-0.853-10.571t6.005-9.429q1.141-1.141 0.853-2.283t-2.005-2.571-3.147-2.283-3.712-2.005l-1.717-1.141q-6.283-2.859-11.712 3.424t-7.712 14.859q-4 14.283-9.141 17.141-13.141 4.576-16.576-0.576-2.859 7.424-23.424 14.859-14.283 5.141-33.141 2.283 3.424 0.576 0 8.576-4 8.576-10.859 6.859 1.717 3.424 2.283 10.005t0.576 7.712q1.717 7.424 6.859 13.141 0.576 0.576 4 4.853t5.429 7.712 0.288 3.424q20-2.283 28.576 6.283 2.859 2.859 6.571 9.717t6.005 9.717q5.141 3.424 8 3.147t8.288-3.147 8.288-2.859q8-0.576 8.853 6.283t-4.288 11.424q6.859-0.576 1.717 9.717-2.859 4-4.576 5.141-6.859 2.283-15.424-2.859-4.576-2.283 1.141-4.576-0.576 0.576-5.429-6.005t-9.429-10.005-9.141 2.859q-0.576 0.576-3.147 7.712t-5.429 7.712q-4.576 0-9.141-8.576 1.717 4.576-6.283 8.576t-13.717 4.576q10.859 6.859-4.576 15.424-4 2.283-11.712 2.859t-11.147-2.283q-2.859-4-3.147-6.571t2.859-4.576 6.005-3.147 6.571-2.283 4.853-1.717q8-5.717 4.576-8-1.141-0.576-4.853-2.005t-6.571-2.571-3.424-2.283q-1.717-2.283 0-8t-1.141-8q-2.859 2.859-5.141 10.005t-4 9.429q4-5.141-14.283-3.424l-5.717 0.576q-2.283 0-9.141-1.141t-11.712-0.576-7.712 4.576q-2.283 4.576 0 11.424 0.576 2.283 2.283 1.141-2.283 1.717-6.283 5.429t-5.717 4.853q-26.283-8.576-53.717-23.424 3.424-0.576 6.859 0.576 2.859 1.141 7.424 3.712t5.717 3.147q19.424 8 24 4l2.859 2.859q8-9.141 11.424-14.283-4 2.283-17.141 0.576-11.424-3.424-12.576-6.859 4-6.859 2.859-10.283-2.283 1.717-6.571 5.717t-8.288 6.283-8.576 2.859q-9.141 0-12.576-0.576-83.424-45.717-134.283-126.859 4-4 6.859-4.576 2.283-0.576 2.859-5.141t1.429-6.283 6.571 1.717q5.141-4.576 1.717-10.859 0.576 0.576 25.141-15.424 10.859-9.717 12-12 1.717-6.283-5.717-10.283-0.576 1.141-5.141 5.141t-5.141 2.283q-1.717-2.859 0.288-10.571t6.005-7.147q-4 0-5.429-9.141t-1.429-20.288-0.576-13.429l1.141-0.576q-1.717-6.859 3.147-19.712t12.288-11.147q-7.424-1.717 11.424-24.576 3.424-4.576 4.576-5.141 1.717-1.141 6.859-4.288t8.576-5.717 5.717-6.005q2.283-2.859 5.717-12.853t8-13.429q-1.141-3.424 5.429-11.424t6.005-13.141q-0.576 0-1.429-0.576t-1.429-0.576q1.717-4 8.853-8t8.853-7.424q0.576-1.717 1.141-5.717t1.717-6.283 4.576-1.141q1.141 11.424-13.717 35.424-8.576 14.283-9.717 16.576-1.717 2.859-3.147 8.853t-2.571 8.288q1.141 0 3.424-0.853t4.853-2.005 4.288-2.283 1.141-1.717q-1.717-4 1.141-10.005t6.859-10.571 9.717-10.859 6.859-7.424q3.424-3.424 8-11.147t0-7.712q5.141 0 11.424-5.717t9.717-11.424q2.859-4.576 4.576-14.859t2.859-13.717q1.141-4 4.853-7.712t7.147-5.429l9.141-4.576t7.424-4q2.859-1.141 10.571-6.005t12.288-6.571q5.717-2.283 9.141-2.283t8.288 1.429 7.712 2.005q8.576 1.141 16.576-8.576t12-12q20.576-10.859 31.424-6.283-1.141-0.576 0.288-4.288t4.576-8.853 5.141-8.288 3.147-4.853q2.859-3.424 10.283-8.576t10.283-8.576q3.424 2.283 4 5.141-1.717-4.576 4-11.424t10.283-5.717q8 1.717 8 18.283-17.717-8.576-28 10.283 0 0.576-1.429 3.147t-2.283 4.853-1.429 4.853 0 4.288 2.859 1.717q5.141 0 5.717 2.005t-1.141 7.147-2.283 7.424q-0.576 4.576-6.283 11.424t-6.859 8.576q-2.859-5.141-9.141-4.576t-9.141 5.141q0-0.576-0.853-3.147t-0.853-3.712q-7.424 0-8.576 0.576 0.576 1.717 1.429 10.005t2.005 12.853q0.576 2.283 3.147 6.859t4.288 8.288 2.283 7.147-2.571 5.429-10.005 1.429q-10.859-0.576-14.859-11.424-0.576-1.717-1.717-6.005t-2.859-6.571-5.141-4q-4-1.717-13.717-1.141t-13.717 2.859q-7.424 4.576-12.853 16.576t-5.429 21.141q0 5.717 1.429 15.147t1.717 14.283-3.147 14.005q1.717 1.141 5.141 5.429t5.717 6.005q1.141 0.576 2.571 0.853t2.571 0 2.283 0.853 1.717 3.424q-0.576 0.576-2.283 1.717-1.717 1.717-2.283 1.717 4-1.717 16.288 0.853t15.712-0.853q8.576-6.283 12.576 1.141 0 0.576-1.429 5.429t-0.288 7.712q2.859-15.424 16.576-5.141 1.717-1.717 8.853-2.859t10.005-2.859q1.717-1.141 4-3.147t3.147-2.571 2.859 0.288 4.853 3.712q5.717-8 6.859-13.717 6.283-22.859 10.859-25.141 4-1.717 6.283-1.141t2.571 5.429 0 8-0.853 7.147l-0.576 4.576v10.283l-0.576 4.576q-8.576 1.717-10.571 6.859t0.853 10.571 8.576 10.571q0.576 0.576 4.576 2.005t8.853 3.712 7.147 4.576q12 10.859 8.576 20 4 0 6.283 5.141-0.576 0-2.859 1.717t-4.288 2.859-2.571 1.141q5.141 2.859 1.141 9.141 2.859 1.717 4.288 6.283t4.288 5.717q5.141-6.859 12-1.141 4 4.576 0.576 9.141 2.859 4 11.712 6.005t10.571 5.429q4-1.141 4.576 1.141t0.576 6.859 1.717 6.859q2.283 2.859 8.576 5.141t7.424 2.859l9.717 6.283q1.717 2.283 0 2.283 10.283-1.141 17.717 6.283 5.717 6.283-3.424 11.424 1.717 3.424-1.717 5.429t-8.576 3.147q1.717 0.576 6.571 0.288t6.005 0.853q8.576 5.717-4 9.141-9.717 2.859-24.576-6.859zM502.283 88q117.717 20.576 200.576 108-1.717 1.717-7.147 2.571t-7.147 2.005q-10.283 4-13.717 4.576 0.576 4-1.429 7.424t-4.576 5.141-7.147 4.576-6.283 4q-1.141 1.141-4 3.424t-4 3.147-4.288 2.571-4.853 1.141-5.717-0.576l-1.717-0.576q-1.717-0.576-3.147-1.429t-3.147-1.717-2.283-1.717 0-1.429q-12 9.717-20.576 12.576-2.859 0.576-6.283 3.147t-6.005 4-5.717 0.853-6.571-4q-2.859-2.859-3.424-8.576t-1.141-7.424q-4 2.859 0 10.005t1.141 10.571q-1.717 3.424-6.005 2.571t-6.859-2.571-6.571-4.853-5.141-3.712-4.853-3.147-4.853-4.288q-1.717-2.283-3.424-6.859t-2.859-6.283q-1.141 2.283-6.571 3.712t-5.429 3.147q1.141-5.717 2.283-20t2.859-21.717q4-17.717-6.859-27.424-15.424-14.283-16.576-22.859-2.283-12.576 6.859-14.859 0-4-4.576-11.712t-4-12.288q0-3.424 1.141-9.141z" />
<glyph unicode="&#xe61b;" glyph-name="google" d="M101.835 673.845c0-76.491 25.547-131.691 75.883-164.096 41.269-26.624 89.088-30.613 113.973-30.613 6.037 0 10.901 0.309 14.283 0.512 0 0-7.883-51.403 30.208-102.197h-1.739c-65.995 0-281.237-13.771-281.237-190.827 0-180.021 197.685-189.184 237.365-189.184 3.125 0 4.971 0.107 4.971 0.107 0.405 0 3.221-0.107 8.085-0.107 25.451 0 91.243 3.179 152.32 32.917 79.253 38.4 119.445 105.419 119.445 198.912 0 90.315-61.237 144.075-105.931 183.403-27.285 24.011-50.891 44.693-50.891 64.821 0 20.48 17.259 35.893 39.019 55.403 35.275 31.488 68.555 76.395 68.555 161.28 0 74.603-9.675 124.725-69.323 156.523 6.197 3.179 28.213 5.483 39.061 7.019 32.309 4.405 79.563 9.419 79.563 35.787v5.067h-235.467c-2.357-0.107-238.133-8.811-238.133-224.715zM481.941 212.373c4.501-71.989-57.088-125.077-149.611-131.787-93.952-6.912-171.264 35.381-175.765 107.317-2.197 34.613 13.003 68.405 42.752 95.381 30.155 27.285 71.573 44.181 116.629 47.509 5.323 0.309 10.603 0.619 15.872 0.619 86.987-0.053 145.867-51.147 150.123-119.040zM420.459 723.147c23.093-81.301-11.776-166.197-67.381-181.909-6.4-1.792-12.949-2.667-19.659-2.667-50.891 0-101.323 51.509-120.064 122.517-10.443 39.733-9.579 74.645 2.411 108.139 11.723 33.024 32.917 55.189 59.541 62.72 6.4 1.792 13.003 2.709 19.712 2.709 61.44 0 100.971-25.493 125.44-111.509zM819.2 550.4v153.6h-102.4v-153.6h-153.6v-102.4h153.6v-153.6h102.4v153.6h153.6v102.4h-153.6z" />
<glyph unicode="&#xe61c;" glyph-name="instagram" d="M870.4 908.8h-716.8c-56.32 0-102.4-46.080-102.4-102.4v-716.8c0-56.373 46.080-102.4 102.4-102.4h716.8c56.32 0 102.4 46.027 102.4 102.4v716.8c0 56.32-46.080 102.4-102.4 102.4zM511.179 165.227c156.619 0 283.541 127.029 283.541 283.595 0 17.301-2.197 33.995-5.269 50.379h80.949v-369.461c0-19.563-15.872-35.328-35.477-35.328h-645.835c-19.605 0-35.477 15.765-35.477 35.328v369.461h79.307c-3.125-16.384-5.323-33.077-5.323-50.379 0-156.619 127.029-283.595 283.595-283.595zM333.973 448.821c0 97.899 79.36 177.205 177.259 177.205 97.845 0 177.259-79.307 177.259-177.205s-79.413-177.259-177.259-177.259c-97.941 0-177.259 79.36-177.259 177.259zM834.923 652.8h-82.688c-19.563 0-35.435 15.979-35.435 35.435v82.795c0 19.563 15.872 35.381 35.381 35.381h82.688c19.659 0 35.531-15.819 35.531-35.381v-82.741c0-19.509-15.872-35.477-35.477-35.477z" />
<glyph unicode="&#xe61d;" glyph-name="keyboard_control" d="M512 533.995q34.005 0 60-26.005t26.005-60-26.005-60-60-26.005-60 26.005-26.005 60 26.005 60 60 26.005zM768 533.995q34.005 0 60-26.005t26.005-60-26.005-60-60-26.005-60 26.005-26.005 60 26.005 60 60 26.005zM256 533.995q34.005 0 60-26.005t26.005-60-26.005-60-60-26.005-60 26.005-26.005 60 26.005 60 60 26.005z" />
<glyph unicode="&#xe61f;" glyph-name="link2" d="M402.379 207.819l-41.472-41.216c-35.893-35.584-94.357-35.584-130.304 0-17.205 17.099-26.677 39.883-26.677 64.107s9.525 46.901 26.677 64.107l152.576 151.296c31.595 31.381 91.083 77.568 134.453 34.56 19.915-19.765 52.021-19.659 71.829 0.256 19.712 19.915 19.605 52.075-0.309 71.787-73.621 73.109-182.581 59.595-277.451-34.56l-152.576-151.349c-36.608-36.299-56.725-84.683-56.725-136.085 0-51.509 20.171-99.787 56.725-136.085 37.685-37.376 87.147-56.117 136.651-56.117s99.019 18.688 136.651 56.117l41.525 41.216c19.915 19.712 20.021 51.819 0.256 71.68-19.819 19.861-51.915 19.968-71.829 0.309zM864.821 795.797c-79.211 78.539-189.899 82.795-263.115 10.091l-51.659-51.307c-19.915-19.765-20.075-51.861-0.309-71.733 19.765-19.915 51.861-20.021 71.787-0.256l51.712 51.253c37.888 37.685 87.605 22.069 120.117-10.091 17.205-17.152 26.731-39.883 26.731-64.107s-9.525-46.955-26.731-64.053l-162.816-161.483c-74.443-73.781-109.365-39.221-124.267-24.427-19.915 19.765-52.021 19.605-71.733-0.256-19.765-19.915-19.659-52.075 0.256-71.733 34.197-33.899 73.216-50.688 114.069-50.688 50.027 0 102.912 25.195 153.237 75.115l162.816 161.429c36.459 36.352 56.683 84.683 56.683 136.085 0 51.456-20.224 99.787-56.779 136.139z" />
<glyph unicode="&#xe620;" glyph-name="linkedin" d="M256 806.4c0-54.379-36.352-101.173-102.453-101.173-62.208 0-102.347 44.139-102.347 98.507 0 55.808 38.912 105.067 102.4 105.067s101.173-46.592 102.4-102.4zM51.2-12.8v665.6h204.8v-665.6h-204.8zM358.4 425.269c0 79.104-2.613 145.205-5.227 202.293h184.011l9.109-88.213h3.893c25.909 41.525 89.397 102.4 195.691 102.4 129.643 0 226.923-86.784 226.923-273.515v-381.035h-204.8v351.285c0 81.611-31.083 143.872-102.4 143.872-54.379 0-81.611-44.032-95.893-80.331-5.227-13.003-6.507-31.125-6.507-49.301v-365.515h-204.8v438.069z" />
<glyph unicode="&#xe626;" glyph-name="map2" d="M672 768l-320 128-352-128v-768l352 128 320-128 352 128v768l-352-128zM384 814.272l256-102.4v-630.133l-256 102.4v630.144zM64 723.168l256 93.088v-631.797l-256-93.088v631.797zM960 172.832l-256-93.088v631.797l256 93.088v-631.797z" />
<glyph unicode="&#xe628;" glyph-name="menu" d="M128 704h768v-86.005h-768v86.005zM128 405.995v84h768v-84h-768zM128 192v86.005h768v-86.005h-768z" />
<glyph unicode="&#xe62c;" glyph-name="paperplane" d="M1009.376 954.88c-5.312 3.424-11.36 5.12-17.376 5.12-6.176 0-12.384-1.76-17.76-5.376l-960-640c-9.888-6.56-15.328-18.112-14.048-29.952 1.216-11.808 8.896-22.016 19.936-26.368l250.368-100.192 117.728-206.016c5.632-9.888 16.096-16 27.424-16.128 0.128 0 0.224 0 0.352 0 11.232 0 21.664 5.952 27.424 15.552l66.464 110.816 310.24-124.064c3.808-1.536 7.808-2.272 11.872-2.272 5.44 0 10.816 1.376 15.68 4.128 8.448 4.736 14.24 13.056 15.872 22.624l160 960c2.080 12.576-3.488 25.184-14.176 32.128zM100.352 295.136l741.6 494.432-539.2-577.184c-2.848 1.696-5.376 3.936-8.512 5.184l-193.888 77.568zM326.048 189.888c-0.064 0.128-0.16 0.192-0.224 0.32l606.176 648.8-516.768-805.184-89.184 156.064zM806.944 12.512l-273.312 109.312c-6.496 2.56-13.248 3.424-19.936 3.808l420.864 652.416-127.616-765.536z" />
<glyph unicode="&#xe62f;" glyph-name="pinterest" d="M441.195 282.773c-26.933-141.003-59.755-276.171-157.077-346.773-30.005 213.099 44.085 373.099 78.539 542.976-58.731 98.816 7.061 297.579 130.816 248.576 152.32-60.213-131.893-367.211 58.88-405.611 199.221-39.989 280.523 345.6 156.981 470.987-178.432 181.141-519.477 4.245-477.493-255.083 10.187-63.381 75.669-82.581 26.165-170.091-114.229 25.291-148.331 115.403-143.925 235.52 7.061 196.608 176.587 334.187 346.677 353.28 215.093 24.117 416.971-78.997 444.875-281.291 31.381-228.405-97.077-475.797-327.115-457.984-62.357 4.864-88.469 35.787-137.323 65.483z" />
<glyph unicode="&#xe631;" glyph-name="rss" d="M331.424 192q0-45.717-32-77.717t-77.717-32-77.717 32-32 77.717 32 77.717 77.717 32 77.717-32 32-77.717zM624 121.717q1.141-16-9.717-27.424-10.283-12-26.859-12h-77.141q-14.283 0-24.576 9.429t-11.424 23.712q-12.576 130.859-105.429 223.712t-223.712 105.429q-14.283 1.141-23.712 11.424t-9.429 24.576v77.141q0 16.576 12 26.859 9.717 9.717 24.576 9.717h2.859q91.424-7.424 174.859-46.005t148-103.712q65.141-64.576 103.712-148t46.005-174.859zM916.576 120.576q1.141-15.424-10.283-26.859-10.283-11.424-26.283-11.424h-81.717q-14.859 0-25.429 10.005t-11.147 24.288q-6.859 122.859-57.717 233.429t-132.288 192-192 132.288-233.429 58.283q-14.283 0.576-24.288 11.147t-10.005 24.853v81.717q0 16 11.424 26.283 10.283 10.283 25.141 10.283h1.717q149.717-7.424 286.571-68.576t243.147-168q106.859-106.283 168-243.147t68.576-286.571z" />
<glyph unicode="&#xe632;" glyph-name="spotify" d="M512 898.56c-248.885 0-450.56-201.621-450.56-450.56 0-248.779 201.675-450.56 450.56-450.56 248.939 0 450.507 201.728 450.507 450.56 0 248.885-201.525 450.56-450.507 450.56zM690.069 217.493c-8.853 0-15.051 3.381-21.557 7.317-60.875 36.917-136.299 56.267-218.005 56.267-41.675 0-86.677-4.971-133.632-14.592l-5.739-1.429c-5.941-1.429-12.032-3.019-16.693-3.019-18.997 0-33.845 14.741-33.845 33.589 0 19.093 10.752 32.619 28.779 35.989 56.117 12.8 108.949 19.051 161.387 19.051 94.976 0 179.861-22.016 252.469-65.483 12.437-7.275 20.277-15.669 20.277-34.197-0.053-18.485-14.997-33.483-33.429-33.483zM736.821 348.619c-10.603 0-17.557 4.043-23.701 7.627-109.717 65.077-273.045 86.677-407.605 50.837-2.251-0.661-4.299-1.28-6.144-1.899-5.067-1.589-9.781-3.179-16.437-3.179-22.123 0-40.085 18.069-40.085 40.341 0 21.451 11.211 36.459 31.435 42.187 51.861 14.229 100.555 23.659 170.645 23.659 113.259 0 223.083-28.416 309.141-79.925 15.669-8.96 22.784-21.195 22.784-39.477 0-22.219-17.973-40.192-40.043-40.192zM789.867 498.123c-9.984 0-16.128 2.411-25.344 7.371-74.389 44.651-190.464 71.221-310.731 71.221-62.667 0-119.605-6.912-169.269-20.331-1.685-0.405-3.275-0.875-5.013-1.387-5.269-1.589-11.883-3.477-18.688-3.477-26.421 0-47.051 20.885-47.051 47.563 0 23.189 13.003 40.907 34.816 47.36 59.957 17.717 128.971 26.677 205.109 26.677 137.109 0 267.573-30.464 357.941-83.509 17.003-9.675 25.344-24.32 25.344-44.651 0-26.261-20.683-46.848-47.104-46.848z" />
<glyph unicode="&#xe633;" glyph-name="steam2" d="M303.925 123.989c27.147 0 53.781 13.131 69.973 37.419 25.739 38.603 15.307 90.752-23.296 116.491l-66.069 44.053c11.307 3.083 23.189 4.757 35.477 4.757 74.389 0 134.699-60.309 134.699-134.699s-60.309-134.699-134.699-134.699c-72.405 0-131.445 57.131-134.549 128.779l71.957-47.968c14.325-9.547 30.507-14.123 46.517-14.123zM853.344 960c93.877 0 170.656-76.811 170.656-170.688v-682.624c0-93.931-76.779-170.688-170.656-170.688h-682.656c-93.877 0-170.688 76.747-170.688 170.677v203.029l121.333-80.885c-11.648-63.179 6.933-130.827 55.797-179.691 78.901-78.901 206.827-78.901 285.739 0 48.469 48.469 67.147 115.435 56.075 178.165l249.056 222.987c46.251 6.635 90.816 27.744 126.389 63.317 87.477 87.477 87.477 229.301 0 316.779s-229.312 87.477-316.789 0c-35.573-35.573-56.683-80.149-63.317-126.389v0l-204.693-310.229c-31.851-1.632-63.381-10.763-91.723-27.392l-217.867 145.248v277.685c0 93.877 76.811 170.688 170.688 170.688h682.656zM896 672c0 88.363-71.637 160-160 160s-160-71.637-160-160 71.637-160 160-160 160 71.637 160 160zM640 672c0 53.024 42.976 96 96 96s96-42.976 96-96-42.976-96-96-96-96 42.976-96 96z" />
<glyph unicode="&#xe636;" glyph-name="tumblr" d="M798.72 28.363c-39.787-18.997-75.776-32.309-107.979-39.989-32.256-7.573-67.125-11.413-104.597-11.413-42.549 0-80.181 5.483-112.896 16.277-32.715 10.901-60.565 26.421-83.712 46.485-23.093 20.224-39.115 41.579-48.021 64.203-8.907 22.677-13.365 55.605-13.365 98.613v330.496h-102.859v133.323c36.555 11.979 67.893 29.184 93.952 51.712 26.112 22.421 46.997 49.408 62.827 80.896 15.765 31.381 26.571 71.477 32.565 120.064h132.352v-238.187h220.875v-147.819h-220.875v-241.611c0-54.581 2.869-89.707 8.597-105.216 5.685-15.509 16.331-27.904 31.851-37.12 20.629-12.491 44.181-18.795 70.709-18.795 47.104 0 94.005 15.509 140.597 46.485v-148.427z" />
<glyph unicode="&#xe637;" glyph-name="twitter" d="M886.581 640.203c0.405-8.299 0.565-16.693 0.565-24.981 0-255.488-194.411-549.995-549.888-549.995-109.205 0-210.741 32-296.299 86.891 15.157-1.792 30.517-2.709 46.080-2.709 90.624 0 173.931 30.923 240.021 82.688-84.533 1.589-155.957 57.397-180.533 134.197 11.776-2.197 23.915-3.381 36.352-3.381 17.664 0 34.763 2.304 50.944 6.709-88.427 17.813-155.029 95.893-155.029 189.589 0 0.821 0 1.589 0 2.411 26.059-14.485 55.915-23.189 87.552-24.213-51.861 34.709-86.016 93.803-86.016 160.917 0 35.381 9.525 68.608 26.219 97.173 95.285-116.992 237.771-193.899 398.389-201.984-3.275 14.187-4.971 28.875-4.971 44.085 0 106.699 86.475 193.173 193.227 193.173 55.605 0 105.835-23.403 141.109-60.981 43.979 8.704 85.355 24.779 122.731 46.901-14.443-45.109-45.109-82.997-84.992-106.901 39.115 4.715 76.288 14.997 110.997 30.411-25.909-38.805-58.677-72.811-96.459-99.989z" />
<glyph unicode="&#xe639;" glyph-name="vimeo" d="M968.192 660.992c-51.509-295.573-339.2-545.792-425.728-602.987-86.528-57.088-165.525 22.891-194.155 83.509-32.821 68.971-131.019 443.189-156.779 474.165-25.749 31.029-102.912-30.976-102.912-30.976l-37.429 49.973c0 0 156.725 190.72 276.021 214.581 126.464 25.237 126.261-197.835 156.672-321.643 29.387-119.915 49.205-188.416 74.901-188.416s74.859 66.816 128.619 169.216c53.909 102.603-2.304 193.131-107.573 128.715 42.133 257.387 439.861 319.285 388.352 23.861z" />
<glyph unicode="&#xe63a;" glyph-name="vine" d="M893.547 450.507c-22.421-5.173-44.181-7.424-63.691-7.424-109.824 0-194.411 76.597-194.411 210.027 0 65.387 25.237 99.381 61.035 99.381 33.995 0 56.683-30.517 56.683-92.416 0-35.221-9.419-73.728-16.384-96.619 0 0 33.792-58.987 126.411-40.907 19.712 43.627 30.357 100.149 30.357 149.707 0 133.376-68.096 210.891-192.661 210.891-128.203 0-203.157-98.411-203.157-228.405 0-128.619 60.16-238.997 159.381-289.333-41.728-83.403-94.827-156.928-150.165-212.277-100.405 121.397-191.179 283.339-228.501 599.349h-147.968c68.352-526.283 272.331-693.909 326.293-726.069 30.517-18.325 56.725-17.461 84.683-1.739 43.776 24.832 175.211 156.363 248.171 310.325 30.571 0.107 67.275 3.531 103.936 11.829v103.68z" />
<glyph unicode="&#xe63c;" glyph-name="youtube" d="M512 842.24c-503.189 0-512-44.747-512-394.24s8.811-394.24 512-394.24 512 44.747 512 394.24-8.811 394.24-512 394.24zM676.096 430.901l-229.888-107.317c-20.117-9.323-36.608 1.131-36.608 23.349v202.133c0 22.165 16.491 32.661 36.608 23.349l229.888-107.317c20.117-9.419 20.117-24.779 0-34.197z" />
<glyph unicode="&#xf09a;" glyph-name="facebook, facebook-f" horiz-adv-x="585" d="M548 944v-150.857h-89.714q-49.143 0-66.286-20.571t-17.143-61.714v-108h167.429l-22.286-169.143h-145.143v-433.714h-174.857v433.714h-145.714v169.143h145.714v124.571q0 106.286 59.429 164.857t158.286 58.571q84 0 130.286-6.857z" />
</font>
</defs>
</svg>
